<svg width="104" height="40" viewBox="0 0 104 40" fill="none" xmlns="http://www.w3.org/2000/svg">
<g clip-path="url(#clip0_6_56)">
<path d="M10.746 28H8.499L6.483 13.3H8.079L9.801 25.816L11.439 13.321H13.056L14.673 25.837L16.332 13.3H17.76L15.765 28H13.602L12.195 18.025L10.746 28ZM21.1412 13.3V28H19.5032V13.3H21.1412ZM23.2454 28V13.3H24.8834V26.509H29.0834V28H23.2454ZM34.1846 13.3C35.3326 13.3 36.1726 13.629 36.7046 14.287C37.2506 14.931 37.5236 15.82 37.5236 16.954V24.367C37.5236 25.501 37.2506 26.39 36.7046 27.034C36.1726 27.678 35.3326 28 34.1846 28H30.7406V13.3H34.1846ZM34.1636 26.509C34.7516 26.509 35.1856 26.334 35.4656 25.984C35.7596 25.62 35.9066 25.102 35.9066 24.43V16.87C35.9066 16.198 35.7596 15.687 35.4656 15.337C35.1856 14.973 34.7446 14.791 34.1426 14.791H32.3786V26.509H34.1636ZM41.1253 25.039L40.5583 28H39.0463L41.8603 13.3H44.2333L47.0473 28H45.4093L44.8423 25.039H41.1253ZM41.3353 23.632H44.6113L42.9523 15.148L41.3353 23.632ZM50.1947 28H48.7247V13.3H50.8037L54.2057 23.926V13.3H55.6547V28H53.9537L50.1947 16.114V28ZM64.7152 13.3C65.8772 13.3 66.7102 13.587 67.2142 14.161C67.7322 14.735 67.9912 15.568 67.9912 16.66V17.857C67.9912 18.669 67.8442 19.327 67.5502 19.831C67.2562 20.335 66.7942 20.685 66.1642 20.881C66.8362 21.077 67.3122 21.441 67.5922 21.973C67.8722 22.491 68.0122 23.149 68.0122 23.947V26.236C68.0122 26.558 68.0262 26.873 68.0542 27.181C68.0822 27.475 68.1662 27.748 68.3062 28H66.6472C66.5492 27.79 66.4792 27.566 66.4372 27.328C66.3952 27.076 66.3742 26.705 66.3742 26.215V23.905C66.3742 23.079 66.1852 22.512 65.8072 22.204C65.4432 21.882 64.9182 21.721 64.2322 21.721H63.0772V28H61.4392V13.3H64.7152ZM64.2952 20.23C64.9532 20.23 65.4642 20.097 65.8282 19.831C66.1922 19.551 66.3742 19.012 66.3742 18.214V16.807C66.3742 16.135 66.2412 15.631 65.9752 15.295C65.7232 14.959 65.2892 14.791 64.6732 14.791H63.0772V20.23H64.2952ZM71.7618 13.3V28H70.1238V13.3H71.7618ZM80.3131 28H73.6351V26.53L78.6751 14.791H73.8661V13.3H80.3551V14.77L75.2941 26.509H80.3131V28ZM84.7421 21.616L83.8811 23.065V28H82.2431V13.3H83.8811V20.398L87.7871 13.3H89.4461L85.7291 19.999L89.5721 28H87.8921L84.7421 21.616ZM92.8939 13.3V28H91.2559V13.3H92.8939ZM96.5732 25.963V28H94.9982V25.963H96.5732Z" fill="#E6EDE6"/>
<path d="M10.746 28V28.5H11.1786L11.2408 28.0719L10.746 28ZM8.499 28L8.00364 28.0679L8.06289 28.5H8.499V28ZM6.483 13.3V12.8H5.90975L5.98764 13.3679L6.483 13.3ZM8.079 13.3L8.57433 13.2318L8.51492 12.8H8.079V13.3ZM9.801 25.816L9.30567 25.8841L10.2968 25.881L9.801 25.816ZM11.439 13.321V12.821H11.0003L10.9432 13.256L11.439 13.321ZM13.056 13.321L13.5519 13.2569L13.4956 12.821H13.056V13.321ZM14.673 25.837L14.1771 25.9011L15.1687 25.9026L14.673 25.837ZM16.332 13.3V12.8H15.8938L15.8363 13.2344L16.332 13.3ZM17.76 13.3L18.2555 13.3672L18.3324 12.8H17.76V13.3ZM15.765 28V28.5H16.2017L16.2605 28.0672L15.765 28ZM13.602 28L13.1069 28.0698L13.1676 28.5H13.602V28ZM12.195 18.025L12.6901 17.9552L11.7002 17.9531L12.195 18.025ZM10.746 27.5H8.499V28.5H10.746V27.5ZM8.99436 27.9321L6.97836 13.2321L5.98764 13.3679L8.00364 28.0679L8.99436 27.9321ZM6.483 13.8H8.079V12.8H6.483V13.8ZM7.58367 13.3681L9.30567 25.8841L10.2963 25.7479L8.57433 13.2318L7.58367 13.3681ZM10.2968 25.881L11.9348 13.386L10.9432 13.256L9.30524 25.751L10.2968 25.881ZM11.439 13.821H13.056V12.821H11.439V13.821ZM12.5601 13.3851L14.1771 25.9011L15.1689 25.7729L13.5519 13.2569L12.5601 13.3851ZM15.1687 25.9026L16.8277 13.3656L15.8363 13.2344L14.1773 25.7714L15.1687 25.9026ZM16.332 13.8H17.76V12.8H16.332V13.8ZM17.2645 13.2328L15.2695 27.9328L16.2605 28.0672L18.2555 13.3672L17.2645 13.2328ZM15.765 27.5H13.602V28.5H15.765V27.5ZM14.0971 27.9302L12.6901 17.9552L11.6999 18.0948L13.1069 28.0698L14.0971 27.9302ZM11.7002 17.9531L10.2512 27.9281L11.2408 28.0719L12.6898 18.0969L11.7002 17.9531ZM21.1412 13.3H21.6412V12.8H21.1412V13.3ZM21.1412 28V28.5H21.6412V28H21.1412ZM19.5032 28H19.0032V28.5H19.5032V28ZM19.5032 13.3V12.8H19.0032V13.3H19.5032ZM20.6412 13.3V28H21.6412V13.3H20.6412ZM21.1412 27.5H19.5032V28.5H21.1412V27.5ZM20.0032 28V13.3H19.0032V28H20.0032ZM19.5032 13.8H21.1412V12.8H19.5032V13.8ZM23.2454 28H22.7454V28.5H23.2454V28ZM23.2454 13.3V12.8H22.7454V13.3H23.2454ZM24.8834 13.3H25.3834V12.8H24.8834V13.3ZM24.8834 26.509H24.3834V27.009H24.8834V26.509ZM29.0834 26.509H29.5834V26.009H29.0834V26.509ZM29.0834 28V28.5H29.5834V28H29.0834ZM23.7454 28V13.3H22.7454V28H23.7454ZM23.2454 13.8H24.8834V12.8H23.2454V13.8ZM24.3834 13.3V26.509H25.3834V13.3H24.3834ZM24.8834 27.009H29.0834V26.009H24.8834V27.009ZM28.5834 26.509V28H29.5834V26.509H28.5834ZM29.0834 27.5H23.2454V28.5H29.0834V27.5ZM36.7046 14.287L36.3157 14.6014L36.3232 14.6103L36.7046 14.287ZM36.7046 27.034L36.3232 26.7106L36.3191 26.7156L36.7046 27.034ZM30.7406 28H30.2406V28.5H30.7406V28ZM30.7406 13.3V12.8H30.2406V13.3H30.7406ZM35.4656 25.984L35.0767 25.6698L35.0752 25.6717L35.4656 25.984ZM35.4656 15.337L35.0693 15.6419L35.0759 15.6504L35.0828 15.6586L35.4656 15.337ZM32.3786 14.791V14.291H31.8786V14.791H32.3786ZM32.3786 26.509H31.8786V27.009H32.3786V26.509ZM34.1846 13.8C35.2389 13.8 35.9097 14.099 36.3158 14.6014L37.0934 13.9726C36.4356 13.1589 35.4263 12.8 34.1846 12.8V13.8ZM36.3232 14.6103C36.7698 15.1371 37.0236 15.8975 37.0236 16.954H38.0236C38.0236 15.7425 37.7314 14.7249 37.086 13.9637L36.3232 14.6103ZM37.0236 16.954V24.367H38.0236V16.954H37.0236ZM37.0236 24.367C37.0236 25.4235 36.7698 26.1839 36.3232 26.7107L37.086 27.3573C37.7314 26.5961 38.0236 25.5785 38.0236 24.367H37.0236ZM36.3191 26.7156C35.9141 27.2058 35.2423 27.5 34.1846 27.5V28.5C35.4229 28.5 36.4311 28.1502 37.0901 27.3524L36.3191 26.7156ZM34.1846 27.5H30.7406V28.5H34.1846V27.5ZM31.2406 28V13.3H30.2406V28H31.2406ZM30.7406 13.8H34.1846V12.8H30.7406V13.8ZM34.1636 27.009C34.8524 27.009 35.4533 26.7998 35.8561 26.2963L35.0752 25.6717C34.918 25.8682 34.6508 26.009 34.1636 26.009V27.009ZM35.8546 26.2982C36.246 25.8136 36.4066 25.1677 36.4066 24.43H35.4066C35.4066 25.0363 35.2733 25.4264 35.0767 25.6698L35.8546 26.2982ZM36.4066 24.43V16.87H35.4066V24.43H36.4066ZM36.4066 16.87C36.4066 16.1341 36.2467 15.4895 35.8485 15.0154L35.0828 15.6586C35.2725 15.8845 35.4066 16.2619 35.4066 16.87H36.4066ZM35.8619 15.0321C35.4594 14.5088 34.8474 14.291 34.1426 14.291V15.291C34.6418 15.291 34.9119 15.4372 35.0693 15.6419L35.8619 15.0321ZM34.1426 14.291H32.3786V15.291H34.1426V14.291ZM31.8786 14.791V26.509H32.8786V14.791H31.8786ZM32.3786 27.009H34.1636V26.009H32.3786V27.009ZM41.1253 25.039V24.539H40.7119L40.6342 24.945L41.1253 25.039ZM40.5583 28V28.5H40.9716L41.0494 28.094L40.5583 28ZM39.0463 28L38.5552 27.906L38.4415 28.5H39.0463V28ZM41.8603 13.3V12.8H41.4469L41.3692 13.206L41.8603 13.3ZM44.2333 13.3L44.7244 13.206L44.6467 12.8H44.2333V13.3ZM47.0473 28V28.5H47.6521L47.5384 27.906L47.0473 28ZM45.4093 28L44.9182 28.094L44.9959 28.5H45.4093V28ZM44.8423 25.039L45.3334 24.945L45.2556 24.539H44.8423V25.039ZM41.3353 23.632L40.8441 23.5384L40.731 24.132H41.3353V23.632ZM44.6113 23.632V24.132H45.2185L45.102 23.536L44.6113 23.632ZM42.9523 15.148L43.443 15.052L42.4611 15.0544L42.9523 15.148ZM40.6342 24.945L40.0672 27.906L41.0494 28.094L41.6164 25.133L40.6342 24.945ZM40.5583 27.5H39.0463V28.5H40.5583V27.5ZM39.5374 28.094L42.3514 13.394L41.3692 13.206L38.5552 27.906L39.5374 28.094ZM41.8603 13.8H44.2333V12.8H41.8603V13.8ZM43.7422 13.394L46.5562 28.094L47.5384 27.906L44.7244 13.206L43.7422 13.394ZM47.0473 27.5H45.4093V28.5H47.0473V27.5ZM45.9004 27.906L45.3334 24.945L44.3512 25.133L44.9182 28.094L45.9004 27.906ZM44.8423 24.539H41.1253V25.539H44.8423V24.539ZM41.3353 24.132H44.6113V23.132H41.3353V24.132ZM45.102 23.536L43.443 15.052L42.4616 15.244L44.1206 23.728L45.102 23.536ZM42.4611 15.0544L40.8441 23.5384L41.8264 23.7256L43.4434 15.2416L42.4611 15.0544ZM50.1947 28V28.5H50.6947V28H50.1947ZM48.7247 28H48.2247V28.5H48.7247V28ZM48.7247 13.3V12.8H48.2247V13.3H48.7247ZM50.8037 13.3L51.2799 13.1475L51.1686 12.8H50.8037V13.3ZM54.2057 23.926L53.7295 24.0785L54.7057 23.926H54.2057ZM54.2057 13.3V12.8H53.7057V13.3H54.2057ZM55.6547 13.3H56.1547V12.8H55.6547V13.3ZM55.6547 28V28.5H56.1547V28H55.6547ZM53.9537 28L53.4769 28.1508L53.5874 28.5H53.9537V28ZM50.1947 16.114L50.6714 15.9632L49.6947 16.114H50.1947ZM50.1947 27.5H48.7247V28.5H50.1947V27.5ZM49.2247 28V13.3H48.2247V28H49.2247ZM48.7247 13.8H50.8037V12.8H48.7247V13.8ZM50.3275 13.4525L53.7295 24.0785L54.6819 23.7735L51.2799 13.1475L50.3275 13.4525ZM54.7057 23.926V13.3H53.7057V23.926H54.7057ZM54.2057 13.8H55.6547V12.8H54.2057V13.8ZM55.1547 13.3V28H56.1547V13.3H55.1547ZM55.6547 27.5H53.9537V28.5H55.6547V27.5ZM54.4304 27.8492L50.6714 15.9632L49.7179 16.2648L53.4769 28.1508L54.4304 27.8492ZM49.6947 16.114V28H50.6947V16.114H49.6947ZM67.2142 14.161L66.8384 14.4909L66.843 14.496L67.2142 14.161ZM67.5502 19.831L67.9821 20.0829L67.9821 20.0829L67.5502 19.831ZM66.1642 20.881L66.0156 20.4036L64.4314 20.8964L66.0242 21.361L66.1642 20.881ZM67.5922 21.973L67.1497 22.2059L67.1523 22.2108L67.5922 21.973ZM68.0542 27.181L67.5562 27.2263L67.5564 27.2284L68.0542 27.181ZM68.3062 28V28.5H69.1559L68.7433 27.7572L68.3062 28ZM66.6472 28L66.1941 28.2114L66.3287 28.5H66.6472V28ZM66.4372 27.328L65.944 27.4102L65.9448 27.4149L66.4372 27.328ZM65.8072 22.204L65.4759 22.5785L65.4835 22.5852L65.4913 22.5916L65.8072 22.204ZM63.0772 21.721V21.221H62.5772V21.721H63.0772ZM63.0772 28V28.5H63.5772V28H63.0772ZM61.4392 28H60.9392V28.5H61.4392V28ZM61.4392 13.3V12.8H60.9392V13.3H61.4392ZM65.8282 19.831L66.1233 20.2348L66.133 20.2273L65.8282 19.831ZM65.9752 15.295L65.575 15.5951L65.5832 15.6054L65.9752 15.295ZM63.0772 14.791V14.291H62.5772V14.791H63.0772ZM63.0772 20.23H62.5772V20.73H63.0772V20.23ZM64.7152 13.8C65.8085 13.8 66.4697 14.071 66.8385 14.4909L67.5899 13.8311C66.9506 13.103 65.9458 12.8 64.7152 12.8V13.8ZM66.843 14.496C67.2494 14.9463 67.4912 15.6409 67.4912 16.66H68.4912C68.4912 15.4951 68.215 14.5237 67.5854 13.826L66.843 14.496ZM67.4912 16.66V17.857H68.4912V16.66H67.4912ZM67.4912 17.857C67.4912 18.6135 67.3536 19.1758 67.1183 19.5791L67.9821 20.0829C68.3348 19.4782 68.4912 18.7245 68.4912 17.857H67.4912ZM67.1183 19.5791C66.8956 19.9609 66.5431 20.2395 66.0156 20.4036L66.3127 21.3584C67.0452 21.1305 67.6168 20.7091 67.9821 20.0829L67.1183 19.5791ZM66.0242 21.361C66.5893 21.5258 66.9433 21.8137 67.1497 22.2059L68.0346 21.7401C67.681 21.0683 67.0831 20.6282 66.3042 20.401L66.0242 21.361ZM67.1523 22.2108C67.3813 22.6344 67.5122 23.2038 67.5122 23.947H68.5122C68.5122 23.0942 68.363 22.3476 68.032 21.7352L67.1523 22.2108ZM67.5122 23.947V26.236H68.5122V23.947H67.5122ZM67.5122 26.236C67.5122 26.5725 67.5268 26.9026 67.5562 27.2263L68.5521 27.1357C68.5255 26.8434 68.5122 26.5435 68.5122 26.236H67.5122ZM67.5564 27.2284C67.5908 27.5893 67.6948 27.9291 67.8691 28.2428L68.7433 27.7572C68.6376 27.5669 68.5736 27.3607 68.5519 27.1336L67.5564 27.2284ZM68.3062 27.5H66.6472V28.5H68.3062V27.5ZM67.1003 27.7886C67.0215 27.6198 66.9643 27.4379 66.9296 27.2411L65.9448 27.4149C65.9941 27.6941 66.0768 27.9602 66.1941 28.2114L67.1003 27.7886ZM66.9304 27.2458C66.8953 27.0354 66.8742 26.6976 66.8742 26.215H65.8742C65.8742 26.7124 65.895 27.1166 65.944 27.4102L66.9304 27.2458ZM66.8742 26.215V23.905H65.8742V26.215H66.8742ZM66.8742 23.905C66.8742 23.0299 66.6781 22.2687 66.123 21.8164L65.4913 22.5916C65.6922 22.7553 65.8742 23.1281 65.8742 23.905H66.8742ZM66.1385 21.8295C65.6515 21.3988 64.9903 21.221 64.2322 21.221V22.221C64.846 22.221 65.2348 22.3652 65.4759 22.5785L66.1385 21.8295ZM64.2322 21.221H63.0772V22.221H64.2322V21.221ZM62.5772 21.721V28H63.5772V21.721H62.5772ZM63.0772 27.5H61.4392V28.5H63.0772V27.5ZM61.9392 28V13.3H60.9392V28H61.9392ZM61.4392 13.8H64.7152V12.8H61.4392V13.8ZM64.2952 20.73C65.0126 20.73 65.6423 20.5861 66.1232 20.2347L65.5332 19.4273C65.2861 19.6079 64.8938 19.73 64.2952 19.73V20.73ZM66.133 20.2273C66.6872 19.8011 66.8742 19.0564 66.8742 18.214H65.8742C65.8742 18.9676 65.6972 19.3009 65.5233 19.4347L66.133 20.2273ZM66.8742 18.214V16.807H65.8742V18.214H66.8742ZM66.8742 16.807C66.8742 16.0825 66.733 15.4468 66.3672 14.9846L65.5832 15.6054C65.7493 15.8152 65.8742 16.1875 65.8742 16.807H66.8742ZM66.3752 14.995C65.9906 14.4822 65.3697 14.291 64.6732 14.291V15.291C65.2086 15.291 65.4557 15.4358 65.5752 15.595L66.3752 14.995ZM64.6732 14.291H63.0772V15.291H64.6732V14.291ZM62.5772 14.791V20.23H63.5772V14.791H62.5772ZM63.0772 20.73H64.2952V19.73H63.0772V20.73ZM71.7618 13.3H72.2618V12.8H71.7618V13.3ZM71.7618 28V28.5H72.2618V28H71.7618ZM70.1238 28H69.6238V28.5H70.1238V28ZM70.1238 13.3V12.8H69.6238V13.3H70.1238ZM71.2618 13.3V28H72.2618V13.3H71.2618ZM71.7618 27.5H70.1238V28.5H71.7618V27.5ZM70.6238 28V13.3H69.6238V28H70.6238ZM70.1238 13.8H71.7618V12.8H70.1238V13.8ZM80.3131 28V28.5H80.8131V28H80.3131ZM73.6351 28H73.1351V28.5H73.6351V28ZM73.6351 26.53L73.1756 26.3327L73.1351 26.4272V26.53H73.6351ZM78.6751 14.791L79.1345 14.9883L79.4339 14.291H78.6751V14.791ZM73.8661 14.791H73.3661V15.291H73.8661V14.791ZM73.8661 13.3V12.8H73.3661V13.3H73.8661ZM80.3551 13.3H80.8551V12.8H80.3551V13.3ZM80.3551 14.77L80.8142 14.9679L80.8551 14.8732V14.77H80.3551ZM75.2941 26.509L74.8349 26.311L74.534 27.009H75.2941V26.509ZM80.3131 26.509H80.8131V26.009H80.3131V26.509ZM80.3131 27.5H73.6351V28.5H80.3131V27.5ZM74.1351 28V26.53H73.1351V28H74.1351ZM74.0945 26.7273L79.1345 14.9883L78.2156 14.5937L73.1756 26.3327L74.0945 26.7273ZM78.6751 14.291H73.8661V15.291H78.6751V14.291ZM74.3661 14.791V13.3H73.3661V14.791H74.3661ZM73.8661 13.8H80.3551V12.8H73.8661V13.8ZM79.8551 13.3V14.77H80.8551V13.3H79.8551ZM79.8959 14.572L74.8349 26.311L75.7532 26.707L80.8142 14.9679L79.8959 14.572ZM75.2941 27.009H80.3131V26.009H75.2941V27.009ZM79.8131 26.509V28H80.8131V26.509H79.8131ZM84.7421 21.616L85.1905 21.3948L84.7829 20.5686L84.3123 21.3606L84.7421 21.616ZM83.8811 23.065L83.4513 22.8096L83.3811 22.9277V23.065H83.8811ZM83.8811 28V28.5H84.3811V28H83.8811ZM82.2431 28H81.7431V28.5H82.2431V28ZM82.2431 13.3V12.8H81.7431V13.3H82.2431ZM83.8811 13.3H84.3811V12.8H83.8811V13.3ZM83.8811 20.398H83.3811L84.3192 20.6391L83.8811 20.398ZM87.7871 13.3V12.8H87.4916L87.3491 13.0589L87.7871 13.3ZM89.4461 13.3L89.8833 13.5426L90.2954 12.8H89.4461V13.3ZM85.7291 19.999L85.2919 19.7564L85.1665 19.9825L85.2784 20.2155L85.7291 19.999ZM89.5721 28V28.5H90.367L90.0228 27.7835L89.5721 28ZM87.8921 28L87.4437 28.2212L87.5813 28.5H87.8921V28ZM84.3123 21.3606L83.4513 22.8096L84.311 23.3204L85.172 21.8714L84.3123 21.3606ZM83.3811 23.065V28H84.3811V23.065H83.3811ZM83.8811 27.5H82.2431V28.5H83.8811V27.5ZM82.7431 28V13.3H81.7431V28H82.7431ZM82.2431 13.8H83.8811V12.8H82.2431V13.8ZM83.3811 13.3V20.398H84.3811V13.3H83.3811ZM84.3192 20.6391L88.2252 13.5411L87.3491 13.0589L83.4431 20.1569L84.3192 20.6391ZM87.7871 13.8H89.4461V12.8H87.7871V13.8ZM89.0089 13.0574L85.2919 19.7564L86.1663 20.2416L89.8833 13.5426L89.0089 13.0574ZM85.2784 20.2155L89.1214 28.2165L90.0228 27.7835L86.1798 19.7825L85.2784 20.2155ZM89.5721 27.5H87.8921V28.5H89.5721V27.5ZM88.3405 27.7788L85.1905 21.3948L84.2937 21.8372L87.4437 28.2212L88.3405 27.7788ZM92.8939 13.3H93.3939V12.8H92.8939V13.3ZM92.8939 28V28.5H93.3939V28H92.8939ZM91.2559 28H90.7559V28.5H91.2559V28ZM91.2559 13.3V12.8H90.7559V13.3H91.2559ZM92.3939 13.3V28H93.3939V13.3H92.3939ZM92.8939 27.5H91.2559V28.5H92.8939V27.5ZM91.7559 28V13.3H90.7559V28H91.7559ZM91.2559 13.8H92.8939V12.8H91.2559V13.8ZM96.5732 25.963H97.0732V25.463H96.5732V25.963ZM96.5732 28V28.5H97.0732V28H96.5732ZM94.9982 28H94.4982V28.5H94.9982V28ZM94.9982 25.963V25.463H94.4982V25.963H94.9982ZM96.0732 25.963V28H97.0732V25.963H96.0732ZM96.5732 27.5H94.9982V28.5H96.5732V27.5ZM95.4982 28V25.963H94.4982V28H95.4982ZM94.9982 26.463H96.5732V25.463H94.9982V26.463Z" fill="#E6EDE6"/>
<path d="M0 0H104V40H0V0Z" stroke="#E6EDE6" stroke-width="2.5" stroke-linecap="round"/>
</g>
<defs>
<clipPath id="clip0_6_56">
<rect width="104" height="40" fill="white"/>
</clipPath>
</defs>
</svg>
